<svg>

  <def>

  <g id="logo" viewBox="0 0 122 28" xmlns="http://www.w3.org/2000/svg">
    <path d="M1.90595 4.662V10.2626C1.90595 11.1813 1.90595 12.2133 0 12.2133V13.7264V13.7468V15.2221C1.90595 15.2221 1.90595 16.2534 1.90595 17.1727V22.7728C1.90595 27.1192 4.28734 27.4347 8.33667 27.4347V24.0543C6.43072 24.0543 5.71666 23.7737 5.71666 22.6893V17.1442C5.71666 15.8637 5.80457 14.5262 4.68683 13.7171C5.80457 12.9092 5.71666 11.5716 5.71666 10.29V4.746C5.71666 3.66275 6.43131 3.381 8.33667 3.381V8.02094e-07C4.28734 -0.000581727 1.90595 0.315001 1.90595 4.662ZM12.6216 4.48058C11.5804 5.36025 11.0601 6.62375 11.0601 8.26992V9.74867H8.88507V12.8386H11.0601V24.0362H15.7864V12.8386H18.7144V9.74867H15.7864V8.694C15.7864 8.15733 15.9443 7.74375 16.2601 7.45325C16.5759 7.16275 17.0274 7.01808 17.6129 7.01808C17.9005 7.01808 19.3699 7.02275 19.3699 7.02275V3.437C19.3699 3.437 16.7463 3.40842 16.3713 3.40842C15.2303 3.40842 13.6628 3.59975 12.6216 4.48058ZM21.4487 7.00992H26.1756V3.437H21.4487V7.00992ZM21.4487 24.0368H26.1756V9.74867H21.4487V24.0368ZM37.8314 9.48442C36.9391 9.48442 36.1299 9.68508 35.4051 10.0852C34.6803 10.4854 34.0715 11.0431 33.5787 11.7553L33.3975 9.74867H28.9774V24.0362H33.6762V13.7637C33.9178 13.4995 34.2084 13.2913 34.5475 13.1431C34.8866 12.9949 35.2747 12.9185 35.7119 12.9185C36.4092 12.9185 36.9367 13.0882 37.2943 13.4266C37.652 13.7661 37.8314 14.3436 37.8314 15.1632V24.0374H42.5439V15.1766C42.5439 13.1956 42.1277 11.7518 41.2964 10.8448C40.4645 9.93767 39.3091 9.48442 37.8314 9.48442ZM56.7964 16.9919C55.9089 16.31 54.5442 15.7961 52.704 15.4531C51.533 15.2431 50.7538 15.0039 50.3687 14.7397C49.9829 14.4766 49.7898 14.154 49.7898 13.776C49.7898 13.3793 49.9572 13.0556 50.2915 12.7995C50.6258 12.544 51.0397 12.4157 51.5324 12.4157C52.2016 12.4157 52.6873 12.5615 52.9893 12.852C53.2913 13.1425 53.4426 13.5695 53.4426 14.1324H58.0158L58.0439 14.0537C58.1001 12.705 57.5332 11.6089 56.3431 10.759C55.153 9.90908 53.5538 9.48383 51.5462 9.48383C49.6402 9.48383 48.1302 9.9225 47.0143 10.7987C45.8989 11.6748 45.3415 12.7412 45.3415 13.9994C45.3415 15.1877 45.7877 16.1262 46.68 16.8122C47.5722 17.4994 48.8969 18.0052 50.6539 18.3312C51.7693 18.5512 52.5383 18.7997 52.9612 19.0767C53.3846 19.3544 53.5957 19.67 53.5957 20.02C53.5957 20.4517 53.433 20.7853 53.1077 21.0169C52.7823 21.2502 52.3039 21.3687 51.6718 21.3687C50.9099 21.3687 50.3214 21.2176 49.9082 20.9189C49.4943 20.6203 49.2784 20.1314 49.2599 19.4536H44.9935L44.966 19.5323C44.9104 20.748 45.4791 21.8487 46.674 22.834C47.8683 23.8204 49.4925 24.3127 51.5468 24.3127C53.5269 24.3127 55.1183 23.8968 56.3221 23.0644C57.5266 22.2326 58.1282 21.175 58.1282 19.8888C58.1282 18.6398 57.6839 17.6738 56.7964 16.9919ZM73.6198 18.0285H73.5361L71.0548 9.74983H68.0844L65.6306 18.0956H65.5469L63.8879 9.74983H59.5378L63.0931 24.0374H67.0677L69.5346 16.4582H69.6183L72.0727 24.0374H76.0604L79.602 9.74983H75.2519L73.6198 18.0285ZM87.6032 9.48433C85.3629 9.47567 83.64 10.1605 82.4367 11.5383C81.2317 12.9156 80.63 14.6918 80.63 16.8659V17.3682C80.63 19.3573 81.2927 21.0128 82.6161 22.3335C83.9408 23.6547 85.7146 24.3145 87.9363 24.3145C89.1353 24.3145 90.2579 24.1628 91.3038 23.8589C92.3492 23.5556 93.2026 23.1752 93.8617 22.7173L92.7469 19.9967C91.9288 20.3233 91.2524 20.5514 90.7178 20.6838C90.1825 20.8168 89.4691 20.8827 88.5768 20.8827C87.6935 20.8827 86.9878 20.6471 86.4579 20.1763C85.9275 19.7038 85.6123 19.1036 85.5094 18.3732L85.5381 18.2933H94.1541V15.9547C94.1541 13.9656 93.5728 12.39 92.4114 11.2274C91.2512 10.0654 89.6473 9.48433 87.6032 9.48433ZM89.5552 15.5068H85.4975L85.4556 15.4414C85.5304 14.6749 85.7373 14.063 86.077 13.6051C86.4155 13.1483 86.925 12.9191 87.6038 12.9191C88.273 12.9191 88.7646 13.1127 89.0821 13.5001C89.3979 13.8874 89.5564 14.4422 89.5564 15.1637L89.5552 15.5068ZM103.418 9.48433C101.177 9.47567 99.4557 10.1605 98.2513 11.5383C97.048 12.9156 96.4452 14.6918 96.4452 16.8659V17.3682C96.4452 19.3573 97.1078 21.0128 98.4325 22.3335C99.7577 23.6547 101.53 24.3145 103.751 24.3145C104.951 24.3145 106.074 24.1628 107.12 23.8589C108.166 23.5556 109.018 23.1752 109.678 22.7173L108.563 19.9967C107.745 20.3233 107.069 20.5514 106.534 20.6838C105.998 20.8168 105.285 20.8827 104.393 20.8827C103.51 20.8827 102.804 20.6471 102.274 20.1763C101.743 19.7038 101.428 19.1036 101.325 18.3732L101.353 18.2933H109.97V15.9547C109.97 13.9656 109.389 12.39 108.227 11.2274C107.065 10.0654 105.463 9.48433 103.418 9.48433ZM105.369 15.5068H101.313L101.271 15.4414C101.346 14.6749 101.552 14.063 101.891 13.6051C102.229 13.1483 102.739 12.9191 103.418 12.9191C104.087 12.9191 104.58 13.1127 104.897 13.5001C105.214 13.8874 105.371 14.4422 105.371 15.1637V15.5073L105.369 15.5068ZM119.652 20.3309C119.067 20.3309 118.615 20.1863 118.299 19.8958C117.984 19.6053 117.825 19.1905 117.825 18.6538V12.8637H120.277V9.77258H117.825V3.41425H113.099V9.77258H110.923V12.8637H113.099V19.0779C113.099 20.7241 113.619 21.9876 114.66 22.8684C115.7 23.7498 117.267 23.9406 118.41 23.9406C118.786 23.9406 121.409 23.912 121.409 23.912V20.3263C121.409 20.3263 119.941 20.3309 119.652 20.3309Z" fill="currentColor"/>
  </g>

  <g id="arrow-right" viewBox="0 0 25 12" xmlns="http://www.w3.org/2000/svg">
    <path d="M24.5303 6.53033C24.8232 6.23744 24.8232 5.76256 24.5303 5.46967L19.7574 0.696699C19.4645 0.403806 18.9896 0.403806 18.6967 0.696699C18.4038 0.989592 18.4038 1.46447 18.6967 1.75736L22.9393 6L18.6967 10.2426C18.4038 10.5355 18.4038 11.0104 18.6967 11.3033C18.9896 11.5962 19.4645 11.5962 19.7574 11.3033L24.5303 6.53033ZM0 6.75H24V5.25H0V6.75Z" fill="currentColor"/>
  </g>

  <g id="arrow-right-button" viewBox="0 0 49 48" xmlns="http://www.w3.org/2000/svg">
    <ellipse cx="24.0997" cy="24" rx="24.0997" ry="24" fill="currentColor"/>
    <path d="M18.4141 35L17 31.7805L26.0305 24.0894L17 16.2195L18.4141 13L30 23.374V25.1626L18.4141 35Z"/>
  </g>

  <g id="arrow-left-button" viewBox="0 0 49 48" xmlns="http://www.w3.org/2000/svg">
    <ellipse cx="24.0995" cy="24" rx="24.0997" ry="24" transform="rotate(-180 24.0995 24)" fill="currentColor"/>
    <path d="M28.5859 13L30 16.2195L20.9695 23.9106L30 31.7805L28.5859 35L17 24.626L17 22.8374L28.5859 13Z"/>
  </g>

  <g id="i-1" viewBox="0 0 32 28" xmlns="http://www.w3.org/2000/svg">
    <path d="M16 10.8749C19.003 10.8749 21.4374 8.44047 21.4374 5.43745C21.4374 2.43443 19.003 0 16 0C12.9969 0 10.5625 2.43443 10.5625 5.43745C10.5625 8.44047 12.9969 10.8749 16 10.8749Z" fill="currentColor"/>
    <path d="M27 10.8749C28.8984 10.8749 30.4374 9.33593 30.4374 7.43747C30.4374 5.53901 28.8984 4 27 4C25.1015 4 23.5625 5.53901 23.5625 7.43747C23.5625 9.33593 25.1015 10.8749 27 10.8749Z" fill="currentColor"/>
    <path d="M4.99997 10.8749C6.89843 10.8749 8.43744 9.33593 8.43744 7.43747C8.43744 5.53901 6.89843 4 4.99997 4C3.10151 4 1.5625 5.53901 1.5625 7.43747C1.5625 9.33593 3.10151 10.8749 4.99997 10.8749Z" fill="currentColor"/>
    <path d="M8.3868 13.9615C7.03369 12.8528 5.80826 12.9996 4.24371 12.9996C1.90373 12.9996 0 14.8921 0 17.2177V24.0432C0 25.0532 0.824368 25.8745 1.83811 25.8745C6.21469 25.8745 5.68745 25.9537 5.68745 25.6857C5.68745 20.8491 5.11458 17.3022 8.3868 13.9615Z" fill="currentColor"/>
    <path d="M17.4882 13.0249C14.7555 12.797 12.3802 13.0275 10.3314 14.7187C6.90288 17.4649 7.56268 21.1625 7.56268 25.6861C7.56268 26.8829 8.53642 27.8748 9.75141 27.8748C22.9439 27.8748 23.469 28.3003 24.2513 26.5679C24.5078 25.9821 24.4375 26.1682 24.4375 20.5636C24.4375 16.112 20.583 13.0249 17.4882 13.0249Z" fill="currentColor"/>
    <path d="M27.7564 13.0004C26.1833 13.0004 24.9646 12.8552 23.6133 13.9623C26.8611 17.2783 26.3126 20.5832 26.3126 25.6865C26.3126 25.9562 25.8749 25.8753 30.0963 25.8753C31.1463 25.8753 32.0001 25.0247 32.0001 23.9791V17.2185C32.0001 14.8929 30.0963 13.0004 27.7564 13.0004Z" fill="currentColor"/>
  </g>

  <g id="i-2" viewBox="0 0 32 32" xmlns="http://www.w3.org/2000/svg">
    <path d="M16 0C7.21187 0 0 7.21187 0 16C0 24.7881 7.21187 32 16 32C24.7881 32 32 24.7881 32 16C32 7.21187 24.7881 0 16 0ZM14.0637 23.2775L7.05713 16.271L9.7085 13.6196L14.1864 18.0975L23.1759 9.9255L25.6991 12.6996L14.0637 23.2775Z" fill="currentColor"/>
  </g>

  <g id="i-3" viewBox="0 0 35 35" xmlns="http://www.w3.org/2000/svg">
    <g clip-path="url(#clip0_757_976)">
      <path d="M2.64172 9.89299L9.89237 2.64235L8.68379 1.43377C6.68481 -0.565208 3.43213 -0.565208 1.43341 1.43404C0.464898 2.40229 -0.0683594 3.68964 -0.0683594 5.05923C-0.0683594 6.42856 0.464898 7.71617 1.43341 8.68442L2.64172 9.89299Z" fill="currentColor"/>
      <path d="M4.0918 11.3426L6.992 8.44238L11.1478 12.5982L8.24757 15.4984L4.0918 11.3426Z" fill="currentColor"/>
      <path d="M8.44238 6.992L11.3426 4.0918L15.4984 8.24731L12.5982 11.1475L8.44238 6.992Z" fill="currentColor"/>
      <path d="M24.9643 30.764C24.9643 30.7643 24.9643 30.7643 24.964 30.7643L24.4863 31.2423L33.5261 34.8581C33.6494 34.9075 33.7784 34.9315 33.9066 34.9315C34.1736 34.9315 34.4358 34.8271 34.6318 34.6311C34.9218 34.3411 35.011 33.9061 34.8588 33.5251L31.243 24.4854L24.9643 30.764Z" fill="currentColor"/>
      <path d="M19.3652 26.615L22.2654 23.7148L25.6888 27.1384L22.7886 30.0386L19.3652 26.615Z" fill="currentColor"/>
      <path d="M23.7148 22.2657L26.615 19.3652L30.0386 22.7888L27.1384 25.689L23.7148 22.2657Z" fill="currentColor"/>
      <path d="M8.80609 27.5075C8.40555 27.9078 8.40555 28.5572 8.80609 28.9575L11.4646 31.616L8.44934 34.6313C8.04907 35.0318 7.39965 35.0318 6.99937 34.6313L0.232049 27.864C-0.168495 27.4637 -0.168495 26.8143 0.232049 26.414L26.414 0.232049C26.8143 -0.168495 27.4637 -0.168495 27.864 0.232049L34.6313 6.99911C34.8316 7.19938 34.9317 7.46187 34.9317 7.72436C34.9317 7.98658 34.8316 8.24907 34.6313 8.44934L31.616 11.4646L27.9908 7.83918C27.5903 7.43864 26.9411 7.43864 26.5406 7.83918C26.1403 8.23973 26.1403 8.88887 26.5406 9.28942L30.1658 12.9146L27.8757 15.2049L25.2172 12.5461C24.8169 12.1458 24.1675 12.1458 23.7669 12.5461C23.3667 12.9467 23.3667 13.5958 23.7669 13.9963L26.4255 16.6549L24.1354 18.9452L20.5103 15.3197C20.1097 14.9195 19.4606 14.9195 19.06 15.3197C18.6597 15.7203 18.6597 16.3694 19.06 16.77L22.6852 20.3952L20.3952 22.6855L17.7366 20.0269C17.3361 19.6264 16.6869 19.6264 16.2864 20.0269C15.8861 20.4272 15.8861 21.0764 16.2864 21.4769L18.9449 24.1354L16.6549 26.4258L13.0297 22.8003C12.6292 22.4 11.98 22.4 11.5795 22.8003C11.1792 23.2008 11.1792 23.85 11.5795 24.2505L15.2047 27.8757L12.9146 30.166L10.2561 27.5075C9.85579 27.107 9.20637 27.107 8.80609 27.5075Z" fill="currentColor"/>
    </g>
    <defs>
      <clipPath id="clip0_757_976">
      <rect width="35" height="35" fill="white"/>
      </clipPath>
    </defs>
  </g>

  <g id="i-4" viewBox="0 0 35 35" xmlns="http://www.w3.org/2000/svg">
    <path d="M34.9994 23.686C34.9994 19.3427 32.5078 15.4665 28.7761 13.5811C28.6602 21.9086 21.9086 28.6602 13.5811 28.7761C15.4665 32.5078 19.3427 34.9994 23.686 34.9994C25.7223 34.9994 27.7026 34.4571 29.4426 33.4266L34.95 34.95L33.4266 29.4426C34.4571 27.7026 34.9994 25.7223 34.9994 23.686Z" fill="currentColor"/>
    <path d="M26.7285 13.3643C26.7285 5.99506 20.7335 0 13.3643 0C5.99506 0 0 5.99506 0 13.3643C0 15.7659 0.639267 18.1043 1.85318 20.1572L0.0491333 26.6791L6.57131 24.8753C8.62423 26.0892 10.9626 26.7285 13.3643 26.7285C20.7335 26.7285 26.7285 20.7335 26.7285 13.3643ZM11.3135 10.2539H9.2627C9.2627 7.99217 11.1025 6.15234 13.3643 6.15234C15.626 6.15234 17.4658 7.99217 17.4658 10.2539C17.4658 11.4019 16.9798 12.5052 16.132 13.2807L14.3896 14.8754V16.4746H12.3389V13.9723L14.7475 11.7677C15.1779 11.3738 15.415 10.8363 15.415 10.2539C15.415 9.12304 14.4951 8.20312 13.3643 8.20312C12.2334 8.20312 11.3135 9.12304 11.3135 10.2539ZM12.3389 18.5254H14.3896V20.5762H12.3389V18.5254Z" fill="currentColor"/>
  </g>

  <g id="i-5" viewBox="0 0 35 35" xmlns="http://www.w3.org/2000/svg">
    <g clip-path="url(#clip0_757_919)">
      <path d="M29.3038 9.94438L31.656 7.59354C32.2263 7.02479 32.2263 6.10167 31.656 5.53146C31.0858 4.96125 30.1642 4.96125 29.594 5.53146L27.2417 7.88229C24.9463 5.985 22.0865 4.74542 18.9583 4.44938V2.91667H21.875C22.6815 2.91667 23.3333 2.26333 23.3333 1.45833C23.3333 0.653333 22.6815 0 21.875 0H13.125C12.3185 0 11.6667 0.653333 11.6667 1.45833C11.6667 2.26333 12.3185 2.91667 13.125 2.91667H16.0417V4.44938C8.28042 5.18583 2.1875 11.7367 2.1875 19.6875C2.1875 28.1313 9.05625 35 17.5 35C25.9438 35 32.8125 28.1313 32.8125 19.6875C32.8125 15.9892 31.4942 12.5942 29.3038 9.94438ZM18.9583 19.6875C18.9583 20.494 18.305 21.1458 17.5 21.1458C16.695 21.1458 16.0417 20.494 16.0417 19.6875V11.6667C16.0417 10.8602 16.695 10.2083 17.5 10.2083C18.305 10.2083 18.9583 10.8602 18.9583 11.6667V19.6875Z" fill="currentColor"/>
    </g>
    <defs>
      <clipPath id="clip0_757_919">
      <rect width="35" height="35" fill="white"/>
      </clipPath>
    </defs>
  </g>

  <g id="i-6" viewBox="0 0 34 34" xmlns="http://www.w3.org/2000/svg">
    <path d="M25.866 5.80537C25.866 5.0077 25.5547 4.25677 24.9905 3.69259L22.1734 0.8755C21.6171 0.319082 20.8273 0 20.0413 0H19.8701V5.97656H25.8661L25.866 5.80537Z" fill="currentColor"/>
    <path d="M18.1911 20.5552C18.3818 19.9764 18.7145 19.4375 19.1483 19.0008L25.8927 12.2836V7.96875H18.8934C18.3429 7.96875 17.9297 7.52323 17.9297 6.97266V0H2.98828C1.34048 0 0 1.34048 0 2.98828V31.0117C0 32.6595 1.34048 34 2.98828 34H22.8778C24.5256 34 25.8927 32.6595 25.8927 31.0117V23.5775L24.798 24.6455C24.3545 25.0852 23.8351 25.4052 23.2494 25.6008L20.0822 26.6582L19.5997 26.6845C18.802 26.6845 18.0472 26.2963 17.5783 25.6466C17.1134 24.9997 16.9869 24.1612 17.2398 23.4034L18.1911 20.5552ZM4.98047 17.9297H14.9091C15.4596 17.9297 15.9052 18.3752 15.9052 18.9258C15.9052 19.4764 15.4596 19.9219 14.9091 19.9219H4.98047C4.42989 19.9219 3.98438 19.4764 3.98438 18.9258C3.98438 18.3752 4.42989 17.9297 4.98047 17.9297ZM3.98438 14.9414C3.98438 14.3908 4.42989 13.9453 4.98047 13.9453H14.9091C15.4596 13.9453 15.9052 14.3908 15.9052 14.9414C15.9052 15.492 15.4596 15.9375 14.9091 15.9375H4.98047C4.42989 15.9375 3.98438 15.492 3.98438 14.9414ZM3.98438 22.9102C3.98438 22.3596 4.42989 21.9141 4.98047 21.9141H14.9091C15.4596 21.9141 15.9052 22.3596 15.9052 22.9102C15.9052 23.4607 15.4596 23.9062 14.9091 23.9062H4.98047C4.42989 23.9062 3.98438 23.4607 3.98438 22.9102ZM18.8934 27.8906C19.444 27.8906 19.8895 28.3361 19.8895 28.8867C19.8895 29.4373 19.4441 29.8828 18.8934 29.8828H12.9169C12.3663 29.8828 11.9208 29.4373 11.9208 28.8867C11.9208 28.3361 12.3663 27.8906 12.9169 27.8906H18.8934ZM4.98047 11.9531C4.42989 11.9531 3.98438 11.5076 3.98438 10.957C3.98438 10.4065 4.42989 9.96094 4.98047 9.96094H18.8934C19.444 9.96094 19.8895 10.4065 19.8895 10.957C19.8895 11.5076 19.444 11.9531 18.8934 11.9531H4.98047Z" fill="currentColor"/>
    <path d="M19.9956 21.4365L19.129 24.0364C18.9991 24.4259 19.3697 24.7964 19.7592 24.6663L22.3575 23.7985L19.9956 21.4365Z" fill="currentColor"/>
    <path d="M27.7321 13.2354L21.1719 19.7956L24.0011 22.6248C25.4838 21.1418 28.3689 18.2564 30.561 16.0643L27.7321 13.2354Z" fill="currentColor"/>
    <path d="M33.4149 10.3777C33.0648 10.0256 32.5492 9.82422 32.0025 9.82422C31.4557 9.82422 30.9402 10.0256 30.5881 10.3787L29.1406 11.8262L31.9694 14.6549C32.7618 13.8624 33.3095 13.3147 33.417 13.2074C34.1951 12.4281 34.195 11.1588 33.4149 10.3777Z" fill="currentColor"/>
  </g>

  <g id="fb" viewBox="0 0 16 16" xmlns="http://www.w3.org/2000/svg">
    <path d="M16 8C16 3.58172 12.4183 0 8 0C3.58172 0 0 3.58172 0 8C0 11.993 2.92547 15.3027 6.75 15.9028V10.3125H4.71875V8H6.75V6.2375C6.75 4.2325 7.94438 3.125 9.77172 3.125C10.6467 3.125 11.5625 3.28125 11.5625 3.28125V5.25H10.5538C9.56 5.25 9.25 5.86672 9.25 6.5V8H11.4688L11.1141 10.3125H9.25V15.9028C13.0745 15.3027 16 11.993 16 8Z" fill="currentColor"/>
  </g>

  <g id="tw" viewBox="0 0 17 14" xmlns="http://www.w3.org/2000/svg">
    <path d="M5.69945 13.5005C11.7357 13.5005 15.0382 8.49829 15.0382 4.16173C15.0382 4.0211 15.0351 3.87735 15.0288 3.73673C15.6713 3.27213 16.2257 2.69666 16.666 2.03735C16.0677 2.30356 15.4324 2.47741 14.782 2.55298C15.4669 2.14243 15.9797 1.49747 16.2254 0.737666C15.5811 1.11953 14.8764 1.3889 14.1416 1.53423C13.6466 1.0082 12.992 0.659899 12.2791 0.543189C11.5663 0.426479 10.8348 0.547855 10.1978 0.888553C9.56088 1.22925 9.05388 1.77029 8.75525 2.42803C8.45661 3.08577 8.38297 3.82357 8.5457 4.52735C7.24101 4.46188 5.96464 4.12296 4.79934 3.53255C3.63403 2.94215 2.60581 2.11345 1.78133 1.10017C1.36228 1.82265 1.23405 2.67759 1.4227 3.49122C1.61135 4.30485 2.10272 5.01612 2.79695 5.48048C2.27577 5.46393 1.766 5.32361 1.30977 5.0711V5.11173C1.3093 5.86992 1.57141 6.60488 2.05156 7.19167C2.5317 7.77846 3.20023 8.18086 3.94352 8.33048C3.46072 8.46257 2.954 8.48182 2.46258 8.38673C2.67232 9.03878 3.0804 9.60908 3.62986 10.018C4.17933 10.427 4.84276 10.6542 5.52758 10.668C4.36497 11.5812 2.9288 12.0766 1.45039 12.0742C1.18821 12.0738 0.926282 12.0578 0.666016 12.0261C2.16792 12.9897 3.91504 13.5014 5.69945 13.5005Z" fill="currentColor"/>
  </g>

  <g id="insta" viewBox="0 0 17 16" xmlns="http://www.w3.org/2000/svg">
    <path d="M8.33399 1.44062C10.4715 1.44062 10.7246 1.45 11.5652 1.4875C12.3465 1.52187 12.7684 1.65313 13.0496 1.7625C13.4215 1.90625 13.6902 2.08125 13.9684 2.35938C14.2496 2.64062 14.4215 2.90625 14.5652 3.27813C14.6746 3.55938 14.8059 3.98438 14.8402 4.7625C14.8777 5.60625 14.8871 5.85938 14.8871 7.99375C14.8871 10.1313 14.8777 10.3844 14.8402 11.225C14.8059 12.0063 14.6746 12.4281 14.5652 12.7094C14.4215 13.0813 14.2465 13.35 13.9684 13.6281C13.6871 13.9094 13.4215 14.0813 13.0496 14.225C12.7684 14.3344 12.3434 14.4656 11.5652 14.5C10.7215 14.5375 10.4684 14.5469 8.33399 14.5469C6.19649 14.5469 5.94336 14.5375 5.10274 14.5C4.32148 14.4656 3.89961 14.3344 3.61836 14.225C3.24648 14.0813 2.97773 13.9063 2.69961 13.6281C2.41836 13.3469 2.24648 13.0813 2.10273 12.7094C1.99336 12.4281 1.86211 12.0031 1.82773 11.225C1.79023 10.3813 1.78086 10.1281 1.78086 7.99375C1.78086 5.85625 1.79023 5.60313 1.82773 4.7625C1.86211 3.98125 1.99336 3.55938 2.10273 3.27813C2.24648 2.90625 2.42148 2.6375 2.69961 2.35938C2.98086 2.07812 3.24648 1.90625 3.61836 1.7625C3.89961 1.65313 4.32461 1.52187 5.10274 1.4875C5.94336 1.45 6.19649 1.44062 8.33399 1.44062ZM8.33399 0C6.16211 0 5.89023 0.009375 5.03711 0.046875C4.18711 0.084375 3.60273 0.221875 3.09648 0.41875C2.56836 0.625 2.12148 0.896875 1.67773 1.34375C1.23086 1.7875 0.958984 2.23438 0.752734 2.75938C0.555859 3.26875 0.418359 3.85 0.380859 4.7C0.343359 5.55625 0.333984 5.82812 0.333984 8C0.333984 10.1719 0.343359 10.4438 0.380859 11.2969C0.418359 12.1469 0.555859 12.7313 0.752734 13.2375C0.958984 13.7656 1.23086 14.2125 1.67773 14.6562C2.12148 15.1 2.56836 15.375 3.09336 15.5781C3.60273 15.775 4.18398 15.9125 5.03398 15.95C5.88711 15.9875 6.15898 15.9969 8.33086 15.9969C10.5027 15.9969 10.7746 15.9875 11.6277 15.95C12.4777 15.9125 13.0621 15.775 13.5684 15.5781C14.0934 15.375 14.5402 15.1 14.984 14.6562C15.4277 14.2125 15.7027 13.7656 15.9059 13.2406C16.1027 12.7313 16.2402 12.15 16.2777 11.3C16.3152 10.4469 16.3246 10.175 16.3246 8.00313C16.3246 5.83125 16.3152 5.55938 16.2777 4.70625C16.2402 3.85625 16.1027 3.27188 15.9059 2.76562C15.709 2.23438 15.4371 1.7875 14.9902 1.34375C14.5465 0.9 14.0996 0.625 13.5746 0.421875C13.0652 0.225 12.484 0.0875 11.634 0.05C10.7777 0.009375 10.5059 0 8.33399 0Z" fill="currentColor"/>
    <path d="M8.33398 3.89062C6.06523 3.89062 4.22461 5.73125 4.22461 8C4.22461 10.2688 6.06523 12.1094 8.33398 12.1094C10.6027 12.1094 12.4434 10.2688 12.4434 8C12.4434 5.73125 10.6027 3.89062 8.33398 3.89062ZM8.33398 10.6656C6.86211 10.6656 5.66836 9.47188 5.66836 8C5.66836 6.52813 6.86211 5.33437 8.33398 5.33437C9.80586 5.33437 10.9996 6.52813 10.9996 8C10.9996 9.47188 9.80586 10.6656 8.33398 10.6656Z" fill="currentColor"/>
    <path d="M13.5652 3.72891C13.5652 4.26016 13.134 4.68828 12.6059 4.68828C12.0746 4.68828 11.6465 4.25703 11.6465 3.72891C11.6465 3.19766 12.0777 2.76953 12.6059 2.76953C13.134 2.76953 13.5652 3.20078 13.5652 3.72891Z" fill="currentColor"/>
  </g>

  <g id="in" viewBox="0 0 16 16" xmlns="http://www.w3.org/2000/svg">
    <path d="M14.8156 0H1.18125C0.528125 0 0 0.515625 0 1.15313V14.8438C0 15.4813 0.528125 16 1.18125 16H14.8156C15.4688 16 16 15.4813 16 14.8469V1.15313C16 0.515625 15.4688 0 14.8156 0ZM4.74687 13.6344H2.37188V5.99687H4.74687V13.6344ZM3.55938 4.95625C2.79688 4.95625 2.18125 4.34062 2.18125 3.58125C2.18125 2.82188 2.79688 2.20625 3.55938 2.20625C4.31875 2.20625 4.93437 2.82188 4.93437 3.58125C4.93437 4.3375 4.31875 4.95625 3.55938 4.95625ZM13.6344 13.6344H11.2625V9.92188C11.2625 9.0375 11.2469 7.89687 10.0281 7.89687C8.79375 7.89687 8.60625 8.8625 8.60625 9.85938V13.6344H6.2375V5.99687H8.5125V7.04063H8.54375C8.85938 6.44063 9.63438 5.80625 10.7875 5.80625C13.1906 5.80625 13.6344 7.3875 13.6344 9.44375V13.6344Z" fill="currentColor"/>
  </g>

  </def>

</svg>